<?xml version="1.0" standalone="no"?>
<!DOCTYPE svg PUBLIC "-//W3C//DTD SVG 20010904//EN"
 "http://www.w3.org/TR/2001/REC-SVG-20010904/DTD/svg10.dtd">
<svg version="1.0" xmlns="http://www.w3.org/2000/svg"
 width="607.000000pt" height="804.000000pt" viewBox="0 0 607.000000 804.000000"
 preserveAspectRatio="xMidYMid meet">

<g transform="translate(0.000000,804.000000) scale(0.100000,-0.100000)"
fill="#000000" stroke="none">
<path d="M0 4020 l0 -4020 751 0 751 0 -58 63 c-33 34 -87 103 -121 152 -33
50 -75 104 -93 120 -18 17 -50 57 -73 90 -22 32 -66 93 -97 135 -31 41 -70 98
-87 125 -43 69 -123 236 -123 258 0 10 -20 39 -44 64 -61 62 -71 107 -62 277
7 136 -3 216 -64 501 -10 50 -24 137 -31 195 -10 96 -10 112 9 190 33 138 103
839 122 1215 7 158 14 206 54 387 25 114 52 248 60 297 16 95 26 121 75 188
42 58 193 177 341 268 179 111 268 176 320 232 25 27 54 56 66 64 12 8 29 29
39 48 29 56 112 127 220 187 17 9 44 27 60 38 17 12 47 29 67 38 35 16 38 16
61 -2 30 -24 47 -69 92 -250 37 -150 52 -197 66 -205 4 -3 -5 43 -21 103 -54
207 -50 257 25 333 37 37 44 51 50 99 4 30 15 69 26 86 10 17 19 39 19 48 0
19 2 20 43 2 18 -7 68 -49 112 -92 44 -43 110 -101 147 -129 38 -27 82 -62
100 -77 17 -16 38 -28 45 -28 7 0 13 -4 13 -9 0 -5 19 -18 43 -29 23 -11 52
-30 64 -41 12 -12 27 -21 33 -21 5 0 10 -3 10 -7 0 -5 17 -27 38 -50 20 -22
50 -67 67 -100 16 -32 36 -62 42 -66 7 -4 13 -14 13 -22 0 -20 37 -53 90 -80
46 -23 130 -116 130 -142 0 -8 12 -37 27 -63 21 -38 35 -51 67 -61 23 -7 48
-13 58 -14 9 0 20 -3 24 -8 4 -4 22 -7 40 -7 18 0 44 -4 58 -10 14 -5 27 -6
30 -1 8 12 88 4 97 -10 7 -12 9 -11 9 1 1 8 7 2 16 -15 13 -27 14 -19 9 100
-4 107 -2 134 11 150 14 19 16 19 28 3 7 -10 16 -15 19 -11 4 3 7 -1 7 -10 0
-9 4 -17 9 -17 10 0 36 -44 82 -139 16 -35 43 -83 58 -105 15 -23 32 -53 38
-68 7 -14 27 -47 45 -71 46 -63 92 -131 93 -137 5 -22 31 -60 41 -60 8 0 16
-12 20 -27 14 -64 26 -93 40 -93 8 0 15 8 15 18 1 9 5 -3 9 -28 4 -25 15 -76
23 -115 l16 -69 -35 -87 c-27 -67 -35 -99 -33 -140 1 -30 -1 -64 -5 -76 -4
-13 -4 -23 1 -23 4 0 8 -28 8 -63 1 -34 8 -77 17 -97 9 -19 18 -42 21 -51 3
-9 19 -23 36 -30 54 -24 63 -59 66 -276 3 -152 1 -203 -11 -235 -14 -40 -47
-82 -56 -72 -3 2 -19 -1 -36 -7 -23 -8 -31 -17 -30 -32 1 -12 -4 -39 -9 -59
-10 -33 -9 -39 13 -59 13 -12 24 -30 24 -38 0 -9 11 -32 24 -51 30 -45 49
-105 43 -136 -4 -20 -1 -23 14 -19 11 4 19 2 19 -4 0 -6 -4 -11 -10 -11 -5 0
-17 -16 -25 -37 -14 -32 -14 -38 0 -53 18 -20 19 -55 1 -95 -8 -19 -10 -41 -5
-60 4 -16 10 -95 13 -175 3 -80 5 -149 6 -154 0 -6 6 -2 13 9 24 31 32 -2 29
-120 -5 -200 -21 -297 -73 -432 -18 -45 -19 -60 -10 -125 5 -40 7 -85 4 -101
-3 -16 0 -34 8 -43 10 -12 14 -52 15 -131 l1 -115 -38 -73 c-22 -40 -39 -80
-39 -88 0 -21 90 -96 107 -90 31 12 33 40 12 130 -19 78 -21 109 -16 273 3
128 10 200 21 235 53 167 127 378 149 426 18 37 27 73 27 106 0 67 20 161 35
167 7 2 43 -7 81 -21 38 -14 96 -33 130 -43 33 -10 80 -28 104 -40 l43 -22
-31 -25 c-18 -13 -32 -33 -32 -44 0 -31 35 -91 75 -129 44 -42 51 -54 69 -122
8 -29 27 -86 41 -126 36 -100 35 -153 -2 -222 -31 -57 -40 -84 -49 -135 -6
-34 -55 -185 -75 -230 -14 -32 -77 -130 -147 -229 -23 -33 -42 -65 -42 -73 0
-11 109 -13 615 -13 l615 0 0 4020 0 4020 -3035 0 -3035 0 0 -4020z m3031
3107 c58 -24 125 -55 150 -69 54 -32 150 -124 165 -158 24 -53 30 -76 32 -115
4 -81 22 -129 63 -173 43 -45 44 -62 1 -62 -66 0 -216 -40 -255 -67 -22 -15
-47 -32 -56 -38 -26 -16 -28 -24 -20 -73 4 -26 5 -50 2 -54 -6 -11 24 -65 41
-71 9 -4 21 4 30 19 9 13 23 24 32 24 9 0 12 5 8 12 -4 7 -3 8 4 4 6 -4 9 -13
6 -20 -7 -19 12 -29 33 -18 13 7 41 2 93 -15 87 -29 89 -31 70 -43 -9 -6 -10
-10 -3 -10 6 0 9 -8 6 -18 -4 -19 14 -31 72 -48 27 -8 30 -14 33 -53 2 -24 -1
-48 -6 -53 -5 -5 -7 -36 -5 -70 6 -80 0 -101 -43 -142 -34 -33 -36 -33 -64
-19 -48 23 -115 107 -166 207 -26 52 -51 93 -55 90 -4 -2 -9 3 -13 11 -3 9
-12 12 -22 8 -12 -4 -15 -3 -10 5 4 7 3 19 -2 29 -19 33 -25 -97 -8 -171 18
-77 12 -99 -38 -131 -40 -26 -127 -36 -155 -18 -14 9 -44 16 -67 17 -23 1 -51
9 -61 17 -17 13 -17 13 -2 -11 12 -18 32 -28 67 -36 28 -7 58 -19 67 -27 8 -9
43 -30 78 -47 34 -17 73 -39 86 -49 l24 -19 -59 -17 c-49 -14 -65 -15 -99 -5
-41 13 -330 31 -352 23 -7 -3 -13 -21 -13 -40 0 -32 2 -35 25 -31 22 5 39 -9
115 -92 50 -54 105 -104 123 -113 17 -8 46 -20 64 -28 20 -8 28 -16 20 -21
-31 -19 42 -27 253 -28 26 0 41 -34 27 -64 -7 -14 -15 -26 -19 -26 -5 0 -8 -5
-8 -11 0 -21 -49 -57 -107 -79 -74 -28 -210 -33 -268 -11 -87 34 -174 95 -299
211 -27 25 -56 54 -65 64 -57 67 -72 88 -104 144 -21 35 -37 65 -37 67 0 2
-13 24 -30 48 -16 25 -30 56 -30 69 0 16 -9 29 -26 39 l-26 14 23 6 24 6 -27
8 c-26 7 -47 40 -34 52 3 4 6 -1 6 -9 0 -9 7 -18 15 -22 8 -3 15 -1 15 4 0 6
-4 10 -10 10 -5 0 -10 4 -10 10 0 5 7 7 15 4 9 -4 15 0 15 8 0 8 9 26 21 39
30 35 39 64 34 110 -4 28 -2 38 6 34 8 -5 8 -1 0 14 -7 12 -9 26 -6 31 3 5 -3
15 -15 22 -11 7 -20 19 -20 26 0 7 -5 18 -10 25 -75 88 -73 83 -68 219 3 86 8
112 31 160 15 31 27 60 27 63 0 4 24 39 54 78 29 40 57 83 61 97 3 14 15 44
26 67 10 24 19 47 19 51 0 15 45 52 91 75 33 16 49 33 65 67 23 48 50 77 61
66 3 -3 30 7 58 23 42 24 61 29 96 25 24 -2 58 0 74 5 47 14 53 13 166 -32z
m-481 -82 c0 -8 -2 -15 -4 -15 -2 0 -12 -3 -21 -6 -15 -6 -15 -4 -4 15 16 25
29 27 29 6z m757 -737 c-3 -8 -6 -5 -6 6 -1 11 2 17 5 13 3 -3 4 -12 1 -19z
m-1082 -428 c-3 -5 -12 -10 -18 -10 -7 0 -6 4 3 10 19 12 23 12 15 0z m1266
-247 c-9 -61 -35 -105 -56 -97 -8 4 -15 13 -15 21 0 26 63 144 71 136 5 -5 5
-32 0 -60z m-607 -54 c15 -18 15 -23 5 -30 -26 -16 -39 -9 -39 21 0 35 9 38
34 9z m145 -21 c31 0 75 5 99 10 32 8 42 7 39 -1 -2 -7 -14 -14 -28 -15 -13
-2 -28 -10 -32 -18 -9 -17 -182 -20 -192 -4 -3 5 -1 19 5 30 9 17 14 18 32 9
11 -6 46 -11 77 -11z m1751 -1682 c0 -3 -4 -8 -10 -11 -5 -3 -10 -1 -10 4 0 6
5 11 10 11 6 0 10 -2 10 -4z"/>
<path d="M2495 6562 c-90 -54 -129 -115 -48 -77 50 24 153 30 232 13 77 -16
94 -38 29 -38 -87 0 -246 -52 -275 -90 -10 -12 -9 -46 3 -58 1 -2 25 1 53 7
30 6 61 7 78 2 99 -31 182 -41 202 -27 11 8 13 8 7 -1 -5 -9 0 -13 13 -13 14
0 21 -6 21 -20 0 -11 -3 -20 -7 -21 -5 0 -39 -9 -78 -20 l-70 -19 60 6 c94 9
155 51 164 113 0 5 14 11 30 14 15 3 31 14 35 24 3 10 17 33 30 51 23 31 24
34 8 53 -69 79 -77 84 -167 102 -48 11 -129 21 -179 24 -87 4 -93 3 -141 -25z
m278 -230 c-32 -4 -37 1 -29 34 l7 28 24 -30 23 -29 -25 -3z"/>
<path d="M3136 6221 c-4 -7 -5 -15 -2 -18 9 -9 19 4 14 18 -4 11 -6 11 -12 0z"/>
<path d="M2774 6004 c-16 -8 -54 -41 -83 -74 -29 -33 -59 -60 -66 -60 -25 0
-51 -71 -53 -143 -1 -37 2 -67 6 -67 11 0 42 34 42 46 0 26 59 116 110 169 33
33 62 72 65 88 4 15 11 30 16 33 11 6 12 24 2 24 -5 0 -22 -7 -39 -16z"/>
<path d="M3751 4148 c-1 -16 4 -28 9 -28 12 0 12 8 0 35 -8 18 -9 17 -9 -7z"/>
<path d="M3719 4010 c24 -21 41 -26 41 -12 0 15 -24 32 -44 32 -20 -1 -20 -1
3 -20z"/>
<path d="M3841 3924 c0 -11 3 -14 6 -6 3 7 2 16 -1 19 -3 4 -6 -2 -5 -13z"/>
<path d="M3845 3745 c-5 -16 -9 -37 -9 -45 -1 -11 -18 -17 -61 -22 -33 -4
-102 -21 -154 -38 -71 -23 -104 -29 -135 -25 -33 5 -47 2 -69 -15 -15 -12 -37
-21 -49 -20 -13 1 -87 2 -165 1 l-143 -1 127 -187 c126 -187 264 -378 410
-567 85 -111 118 -187 173 -406 37 -149 46 -178 63 -204 8 -12 18 -37 22 -55
5 -24 10 -30 15 -20 14 26 58 253 75 388 19 146 19 146 -19 486 -31 282 -55
527 -64 660 -6 83 -9 95 -17 70z"/>
<path d="M1723 2544 c-5 -14 2 -80 24 -229 8 -49 8 -48 11 30 2 43 7 84 12 90
12 15 22 78 13 91 -5 6 -18 16 -31 23 -19 10 -23 9 -29 -5z"/>
<path d="M1762 2240 c0 -14 2 -19 5 -12 2 6 2 18 0 25 -3 6 -5 1 -5 -13z"/>
<path d="M1771 2184 c0 -11 3 -14 6 -6 3 7 2 16 -1 19 -3 4 -6 -2 -5 -13z"/>
<path d="M1791 1918 c-1 -157 -4 -168 -58 -255 -18 -29 -33 -55 -33 -59 0 -3
20 -3 44 0 37 6 48 4 65 -13 12 -12 21 -28 21 -36 0 -33 45 -143 82 -199 21
-33 38 -66 38 -73 0 -17 4 -16 42 3 30 15 30 17 24 67 -4 28 -11 56 -16 62 -5
6 -10 22 -12 35 -2 14 -20 47 -41 74 -21 27 -40 60 -43 73 -4 13 -11 23 -17
23 -6 0 -8 3 -4 6 3 3 -1 28 -9 56 -9 27 -22 86 -30 131 -8 45 -23 120 -33
167 l-20 85 0 -147z"/>
<path d="M3802 1671 c-40 -39 -56 -104 -38 -162 7 -24 18 -43 24 -41 7 1 12
-3 12 -8 0 -16 36 -11 52 8 9 9 22 43 29 75 7 32 16 60 21 63 13 8 9 50 -5 62
-7 6 -24 15 -39 21 -22 8 -30 6 -56 -18z"/>
<path d="M1974 1136 c2 -34 7 -51 20 -58 15 -8 16 -6 10 19 -4 15 -12 42 -19
58 -13 29 -13 29 -11 -19z"/>
<path d="M3923 803 c-33 -13 -93 -133 -93 -186 0 -59 78 1 102 78 6 22 18 49
25 60 27 41 10 66 -34 48z m0 -66 c3 -7 -4 -19 -14 -25 -17 -11 -19 -9 -19 13
0 26 24 35 33 12z m-36 -79 c-3 -8 -6 -5 -6 6 -1 11 2 17 5 13 3 -3 4 -12 1
-19z"/>
<path d="M4222 758 c-12 -17 -21 -78 -10 -78 4 0 8 9 8 20 0 11 16 30 37 45
l38 25 -31 0 c-18 0 -36 -6 -42 -12z"/>
<path d="M4382 31 c-28 -24 -28 -31 2 -31 13 0 27 7 30 16 15 38 1 45 -32 15z"/>
</g>
</svg>
